<svg width="12" height="10" xmlns="http://www.w3.org/2000/svg">
  <g>
    <path fill="#8CD79F" opacity="NaN" d="m268.62498,349.2513l129.00002,-165.81818l129.00002,165.81818l-258,0l-0.00004,0z" id="svg_4" stroke="#000"/>
    <path fill="none" stroke="#000" d="m553.225,254.13188l0.745,-1.30375l0.745,1.30375l-1.49,0z" id="svg_5"/>
    <path fill="#000000" stroke="#000" d="m589.045,259.10688l0.745,-1.30375l0.745,1.30375l-1.49,0z" id="svg_8"/>
    <path stroke="#000" fill="#8CD79F" stroke-width="0" d="m0.02816,9.96364l5.97049,-9.9326l5.97049,9.9326l-11.94097,0l0,0z" id="svg_2"/>
    <path stroke="#000" id="svg_1" d="m-63.675,-48.33079l0.56913,0l0.17587,-0.38197l0.17587,0.38197l0.56913,0l-0.46044,0.23607l0.17588,0.38197l-0.46044,-0.23607l-0.46044,0.23607l0.17588,-0.38197l-0.46044,-0.23607z" fill="#8CD79F"/>
  </g>
</svg>
